<svg id="Layer_1" data-name="Layer 1" xmlns="http://www.w3.org/2000/svg" viewBox="0 0 676.55 114.22"><defs><style>.cls-1,.cls-3{fill:#fff;}.cls-2{fill:none;}.cls-3{stroke:#000;stroke-miterlimit:10;}</style></defs><polygon class="cls-1" points="59 0.22 0 103.22 11 109.22 66 14.22 80 14.22 134 110.22 145 103.22 87 0.22 59 0.22"/><rect class="cls-1" x="67.05" y="42.22" width="14" height="14"/><path class="cls-1" d="M1521.37,750.62,1471,702.71l-9,9,45,44-50,46,9,10,55.42-51a6.79,6.79,0,0,0,.49-9.6A5.66,5.66,0,0,0,1521.37,750.62Z" transform="translate(-1306.95 -700.78)"/><path class="cls-1" d="M1597,712.71l-10-10-50.75,47.91a5.55,5.55,0,0,0-.48.49,6.8,6.8,0,0,0,.48,9.6l53.75,51,10-9-49.33-47Z" transform="translate(-1306.95 -700.78)"/><rect class="cls-1" x="311.05" y="1.22" width="13.5" height="104.5"/><path class="cls-1" d="M1756.36,701h-65.72A34.64,34.64,0,0,0,1656,735.64v44.72A34.64,34.64,0,0,0,1690.64,815h65.72A34.64,34.64,0,0,0,1791,780.36V735.64A34.64,34.64,0,0,0,1756.36,701ZM1779,775.36A25.64,25.64,0,0,1,1753.36,801h-59.72A25.64,25.64,0,0,1,1668,775.36V739.64A25.64,25.64,0,0,1,1693.64,714h59.72A25.64,25.64,0,0,1,1779,739.64Z" transform="translate(-1306.95 -700.78)"/><rect class="cls-2" x="361.05" y="13.22" width="111" height="87" rx="25.64"/><path class="cls-1" d="M1983.05,702c.44,0,0-.48,0,0Z" transform="translate(-1306.95 -700.78)"/><path class="cls-3" d="M1982.55,701.5c.44,0,0-.48,0,0Z" transform="translate(-1306.95 -700.78)"/><path class="cls-1" d="M1977.06,806.5a6.44,6.44,0,0,0,6.44-6.47V800l-.94-98-34.14-.89a6.54,6.54,0,0,0-5.72,3.07l-41.1,66.15a6.54,6.54,0,0,1-9,2.13,11.4,11.4,0,0,1-2.56-2.48l-43.92-66.54a5.18,5.18,0,0,0-.62-.78,6.53,6.53,0,0,0-4.34-1.65h-24.7a6.48,6.48,0,0,0-6.5,6.45v93.08a5.69,5.69,0,0,0,6,6h0a6.49,6.49,0,0,0,6.5-6.48V720.21a5.63,5.63,0,0,1,1.52-4.67,7.72,7.72,0,0,1,4.44-2.54h6a9.58,9.58,0,0,1,5.44,3.68l51.56,80.4a6.46,6.46,0,0,0,8.94,1.94,6.36,6.36,0,0,0,2-2l49.7-80.22a5.65,5.65,0,0,1,5.5-2.77h5c3.55-.29,6.41,6.11,6.41,6.11l.87,80.49a6.47,6.47,0,0,0,1.64,4.22,6.56,6.56,0,0,0,4.39,1.68Z" transform="translate(-1306.95 -700.78)"/></svg>